<mxfile host="app.diagrams.net" modified="2023-04-17T18:13:49.685Z" agent="Mozilla/5.0 (Windows NT 10.0; Win64; x64) AppleWebKit/537.36 (KHTML, like Gecko) Chrome/111.0.0.0 Safari/537.36" etag="DyR9C_l3pSIN-g16wI2R" version="21.1.8" type="device">
  <diagram name="Page-1" id="hE9ssMhjJrDO1SPnjomx">
    <mxGraphModel dx="1434" dy="707" grid="1" gridSize="10" guides="1" tooltips="1" connect="1" arrows="1" fold="1" page="1" pageScale="1" pageWidth="850" pageHeight="1100" math="0" shadow="0">
      <root>
        <mxCell id="0" />
        <mxCell id="1" parent="0" />
        <mxCell id="BGifTTCd_8eWKmfKLKCY-4" value="Πολιτιστικός &lt;br&gt;Οργανισμός" style="shape=umlActor;verticalLabelPosition=bottom;verticalAlign=top;html=1;outlineConnect=0;rounded=1;labelBackgroundColor=default;sketch=1;curveFitting=1;jiggle=2;fontStyle=1;labelBorderColor=none;" parent="1" vertex="1">
          <mxGeometry x="50" y="450" width="30" height="60" as="geometry" />
        </mxCell>
        <mxCell id="BGifTTCd_8eWKmfKLKCY-9" value="Οθόνη αναρτημένων αγγελιών" style="shape=umlBoundary;whiteSpace=wrap;html=1;rounded=1;labelBackgroundColor=none;sketch=1;curveFitting=1;jiggle=2;fontStyle=1;labelBorderColor=none;" parent="1" vertex="1">
          <mxGeometry x="330" y="100" width="100" height="80" as="geometry" />
        </mxCell>
        <mxCell id="BGifTTCd_8eWKmfKLKCY-11" value="" style="endArrow=classic;html=1;rounded=1;exitX=0.5;exitY=0.5;exitDx=0;exitDy=0;exitPerimeter=0;entryX=0;entryY=0.463;entryDx=0;entryDy=0;entryPerimeter=0;labelBackgroundColor=none;fontColor=default;sketch=1;curveFitting=1;jiggle=2;fontStyle=1;labelBorderColor=none;" parent="1" source="BGifTTCd_8eWKmfKLKCY-4" target="BGifTTCd_8eWKmfKLKCY-9" edge="1">
          <mxGeometry width="50" height="50" relative="1" as="geometry">
            <mxPoint x="670" y="350" as="sourcePoint" />
            <mxPoint x="720" y="300" as="targetPoint" />
          </mxGeometry>
        </mxCell>
        <mxCell id="BGifTTCd_8eWKmfKLKCY-17" value="&lt;span style=&quot;font-size: 12px;&quot;&gt;Επιλογή Δημιουργίας&lt;br&gt;Νέας Αγγελίας&lt;br&gt;&lt;/span&gt;" style="edgeLabel;html=1;align=center;verticalAlign=middle;resizable=0;points=[];rounded=1;labelBackgroundColor=default;sketch=1;curveFitting=1;jiggle=2;fontStyle=1;labelBorderColor=none;" parent="BGifTTCd_8eWKmfKLKCY-11" vertex="1" connectable="0">
          <mxGeometry x="0.1346" y="2" relative="1" as="geometry">
            <mxPoint x="-6" y="7" as="offset" />
          </mxGeometry>
        </mxCell>
        <mxCell id="BGifTTCd_8eWKmfKLKCY-12" value="Εμφάνισε" style="ellipse;shape=umlControl;whiteSpace=wrap;html=1;rounded=1;labelBackgroundColor=none;sketch=1;curveFitting=1;jiggle=2;fontStyle=1;labelBorderColor=none;" parent="1" vertex="1">
          <mxGeometry x="475" y="20" width="70" height="80" as="geometry" />
        </mxCell>
        <mxCell id="BGifTTCd_8eWKmfKLKCY-13" value="" style="endArrow=classic;html=1;rounded=1;exitX=0.029;exitY=0.675;exitDx=0;exitDy=0;exitPerimeter=0;labelBackgroundColor=none;fontColor=default;sketch=1;curveFitting=1;jiggle=2;fontStyle=1;labelBorderColor=none;" parent="1" source="BGifTTCd_8eWKmfKLKCY-12" edge="1">
          <mxGeometry width="50" height="50" relative="1" as="geometry">
            <mxPoint x="810" y="390" as="sourcePoint" />
            <mxPoint x="410" y="110" as="targetPoint" />
          </mxGeometry>
        </mxCell>
        <mxCell id="BGifTTCd_8eWKmfKLKCY-18" value="Εμφάνισε" style="ellipse;shape=umlControl;whiteSpace=wrap;html=1;rounded=1;labelBackgroundColor=none;sketch=1;curveFitting=1;jiggle=2;fontStyle=1;labelBorderColor=none;" parent="1" vertex="1">
          <mxGeometry x="630" y="130" width="70" height="80" as="geometry" />
        </mxCell>
        <mxCell id="BGifTTCd_8eWKmfKLKCY-19" value="" style="endArrow=classic;html=1;rounded=1;labelBackgroundColor=none;fontColor=default;sketch=1;curveFitting=1;jiggle=2;fontStyle=1;labelBorderColor=none;" parent="1" source="BGifTTCd_8eWKmfKLKCY-9" target="BGifTTCd_8eWKmfKLKCY-18" edge="1">
          <mxGeometry width="50" height="50" relative="1" as="geometry">
            <mxPoint x="740" y="360" as="sourcePoint" />
            <mxPoint x="790" y="310" as="targetPoint" />
          </mxGeometry>
        </mxCell>
        <mxCell id="BGifTTCd_8eWKmfKLKCY-20" value="Οθόνη συμπλήρωσης στοιχείων αγγελίας" style="shape=umlBoundary;whiteSpace=wrap;html=1;rounded=1;labelBackgroundColor=none;sketch=1;curveFitting=1;jiggle=2;fontStyle=1;labelBorderColor=none;" parent="1" vertex="1">
          <mxGeometry x="375" y="230" width="100" height="80" as="geometry" />
        </mxCell>
        <mxCell id="BGifTTCd_8eWKmfKLKCY-21" value="" style="endArrow=classic;html=1;rounded=1;exitX=0.086;exitY=0.8;exitDx=0;exitDy=0;exitPerimeter=0;labelBackgroundColor=none;fontColor=default;sketch=1;curveFitting=1;jiggle=2;fontStyle=1;labelBorderColor=none;" parent="1" source="BGifTTCd_8eWKmfKLKCY-18" target="BGifTTCd_8eWKmfKLKCY-20" edge="1">
          <mxGeometry width="50" height="50" relative="1" as="geometry">
            <mxPoint x="680" y="340" as="sourcePoint" />
            <mxPoint x="730" y="290" as="targetPoint" />
          </mxGeometry>
        </mxCell>
        <mxCell id="BGifTTCd_8eWKmfKLKCY-23" value="" style="endArrow=classic;html=1;rounded=1;exitX=0.5;exitY=0.5;exitDx=0;exitDy=0;exitPerimeter=0;entryX=-0.03;entryY=0.513;entryDx=0;entryDy=0;entryPerimeter=0;labelBackgroundColor=none;fontColor=default;sketch=1;curveFitting=1;jiggle=2;fontStyle=1;labelBorderColor=none;" parent="1" source="BGifTTCd_8eWKmfKLKCY-4" target="BGifTTCd_8eWKmfKLKCY-20" edge="1">
          <mxGeometry width="50" height="50" relative="1" as="geometry">
            <mxPoint x="680" y="340" as="sourcePoint" />
            <mxPoint x="730" y="290" as="targetPoint" />
          </mxGeometry>
        </mxCell>
        <mxCell id="BGifTTCd_8eWKmfKLKCY-24" value="&lt;font style=&quot;font-size: 12px;&quot;&gt;Συγγραφή Αγγελίας&lt;/font&gt;" style="edgeLabel;html=1;align=center;verticalAlign=middle;resizable=0;points=[];rounded=1;labelBackgroundColor=default;sketch=1;curveFitting=1;jiggle=2;fontStyle=1;labelBorderColor=none;" parent="BGifTTCd_8eWKmfKLKCY-23" vertex="1" connectable="0">
          <mxGeometry x="0.1568" y="2" relative="1" as="geometry">
            <mxPoint as="offset" />
          </mxGeometry>
        </mxCell>
        <mxCell id="BGifTTCd_8eWKmfKLKCY-26" value="Μήνυμα επιλογής ετικετών/tags" style="shape=umlBoundary;whiteSpace=wrap;html=1;rounded=1;labelBackgroundColor=none;sketch=1;curveFitting=1;jiggle=2;fontStyle=1;labelBorderColor=none;" parent="1" vertex="1">
          <mxGeometry x="350" y="360" width="125" height="100" as="geometry" />
        </mxCell>
        <mxCell id="BGifTTCd_8eWKmfKLKCY-28" value="" style="endArrow=classic;html=1;rounded=1;exitX=0.95;exitY=0.75;exitDx=0;exitDy=0;exitPerimeter=0;entryX=0.057;entryY=0.375;entryDx=0;entryDy=0;entryPerimeter=0;labelBackgroundColor=none;fontColor=default;sketch=1;curveFitting=1;jiggle=2;fontStyle=1;labelBorderColor=none;" parent="1" source="BGifTTCd_8eWKmfKLKCY-20" target="BGifTTCd_8eWKmfKLKCY-40" edge="1">
          <mxGeometry width="50" height="50" relative="1" as="geometry">
            <mxPoint x="581.97" y="370" as="sourcePoint" />
            <mxPoint x="560" y="300" as="targetPoint" />
          </mxGeometry>
        </mxCell>
        <mxCell id="BGifTTCd_8eWKmfKLKCY-29" value="" style="endArrow=classic;html=1;rounded=1;entryX=-0.032;entryY=0.5;entryDx=0;entryDy=0;entryPerimeter=0;exitX=0.5;exitY=0.5;exitDx=0;exitDy=0;exitPerimeter=0;labelBackgroundColor=none;fontColor=default;sketch=1;curveFitting=1;jiggle=2;fontStyle=1;labelBorderColor=none;" parent="1" source="BGifTTCd_8eWKmfKLKCY-4" target="BGifTTCd_8eWKmfKLKCY-26" edge="1">
          <mxGeometry width="50" height="50" relative="1" as="geometry">
            <mxPoint x="360" y="550" as="sourcePoint" />
            <mxPoint x="410" y="500" as="targetPoint" />
          </mxGeometry>
        </mxCell>
        <mxCell id="BGifTTCd_8eWKmfKLKCY-30" value="&lt;font style=&quot;font-size: 12px;&quot;&gt;Επιλογή Ετικετών/Tags&lt;/font&gt;" style="edgeLabel;html=1;align=center;verticalAlign=middle;resizable=0;points=[];rounded=1;labelBackgroundColor=default;sketch=1;curveFitting=1;jiggle=2;fontStyle=1;labelBorderColor=none;" parent="BGifTTCd_8eWKmfKLKCY-29" vertex="1" connectable="0">
          <mxGeometry x="0.2329" y="1" relative="1" as="geometry">
            <mxPoint as="offset" />
          </mxGeometry>
        </mxCell>
        <mxCell id="BGifTTCd_8eWKmfKLKCY-31" value="Συμπλήρωση απαιτούμενων στοιχείων?" style="ellipse;shape=umlControl;whiteSpace=wrap;html=1;rounded=1;labelBackgroundColor=none;sketch=1;curveFitting=1;jiggle=2;fontStyle=1;labelBorderColor=none;" parent="1" vertex="1">
          <mxGeometry x="650" y="470" width="90" height="100" as="geometry" />
        </mxCell>
        <mxCell id="BGifTTCd_8eWKmfKLKCY-32" value="" style="endArrow=classic;html=1;rounded=1;labelBackgroundColor=none;fontColor=default;sketch=1;curveFitting=1;jiggle=2;fontStyle=1;labelBorderColor=none;entryX=-0.033;entryY=0.48;entryDx=0;entryDy=0;entryPerimeter=0;" parent="1" source="BGifTTCd_8eWKmfKLKCY-26" target="zKwYNfhKX217E5rTL9SB-1" edge="1">
          <mxGeometry width="50" height="50" relative="1" as="geometry">
            <mxPoint x="360" y="530" as="sourcePoint" />
            <mxPoint x="510" y="420" as="targetPoint" />
          </mxGeometry>
        </mxCell>
        <mxCell id="BGifTTCd_8eWKmfKLKCY-33" value="Πεδίο για ανέβασμα αρχείων" style="shape=umlBoundary;whiteSpace=wrap;html=1;rounded=1;labelBackgroundColor=none;sketch=1;curveFitting=1;jiggle=2;fontStyle=1;labelBorderColor=none;" parent="1" vertex="1">
          <mxGeometry x="310" y="530" width="100" height="80" as="geometry" />
        </mxCell>
        <mxCell id="BGifTTCd_8eWKmfKLKCY-34" value="" style="endArrow=classic;html=1;rounded=1;exitX=0;exitY=0.48;exitDx=0;exitDy=0;exitPerimeter=0;labelBackgroundColor=none;fontColor=default;sketch=1;curveFitting=1;jiggle=2;fontStyle=1;labelBorderColor=none;" parent="1" source="BGifTTCd_8eWKmfKLKCY-31" target="BGifTTCd_8eWKmfKLKCY-38" edge="1">
          <mxGeometry width="50" height="50" relative="1" as="geometry">
            <mxPoint x="360" y="430" as="sourcePoint" />
            <mxPoint x="500" y="480" as="targetPoint" />
          </mxGeometry>
        </mxCell>
        <mxCell id="BGifTTCd_8eWKmfKLKCY-35" value="&lt;font style=&quot;font-size: 12px;&quot;&gt;Ναι&lt;/font&gt;" style="edgeLabel;html=1;align=center;verticalAlign=middle;resizable=0;points=[];rounded=1;labelBackgroundColor=default;sketch=1;curveFitting=1;jiggle=2;fontStyle=1;labelBorderColor=none;" parent="BGifTTCd_8eWKmfKLKCY-34" vertex="1" connectable="0">
          <mxGeometry x="-0.2833" y="-2" relative="1" as="geometry">
            <mxPoint as="offset" />
          </mxGeometry>
        </mxCell>
        <mxCell id="BGifTTCd_8eWKmfKLKCY-36" value="" style="endArrow=classic;html=1;rounded=1;entryX=-0.01;entryY=0.475;entryDx=0;entryDy=0;entryPerimeter=0;exitX=0.5;exitY=0.5;exitDx=0;exitDy=0;exitPerimeter=0;labelBackgroundColor=none;fontColor=default;sketch=1;curveFitting=1;jiggle=2;fontStyle=1;labelBorderColor=none;" parent="1" source="BGifTTCd_8eWKmfKLKCY-4" target="BGifTTCd_8eWKmfKLKCY-33" edge="1">
          <mxGeometry width="50" height="50" relative="1" as="geometry">
            <mxPoint x="70" y="370" as="sourcePoint" />
            <mxPoint x="410" y="380" as="targetPoint" />
          </mxGeometry>
        </mxCell>
        <mxCell id="BGifTTCd_8eWKmfKLKCY-37" value="&lt;font style=&quot;font-size: 12px;&quot;&gt;Ανέβασμα Αρχείων&lt;/font&gt;" style="edgeLabel;html=1;align=center;verticalAlign=middle;resizable=0;points=[];rounded=1;labelBackgroundColor=default;sketch=1;curveFitting=1;jiggle=2;fontStyle=1;labelBorderColor=none;" parent="BGifTTCd_8eWKmfKLKCY-36" vertex="1" connectable="0">
          <mxGeometry x="0.0925" y="-2" relative="1" as="geometry">
            <mxPoint as="offset" />
          </mxGeometry>
        </mxCell>
        <mxCell id="BGifTTCd_8eWKmfKLKCY-38" value="Ενεργοποίησε" style="ellipse;shape=umlControl;whiteSpace=wrap;html=1;rounded=1;labelBackgroundColor=none;sketch=1;curveFitting=1;jiggle=2;fontStyle=1;labelBorderColor=none;" parent="1" vertex="1">
          <mxGeometry x="500" y="480" width="80" height="90" as="geometry" />
        </mxCell>
        <mxCell id="BGifTTCd_8eWKmfKLKCY-39" value="" style="endArrow=classic;html=1;rounded=1;exitX=-0.025;exitY=0.578;exitDx=0;exitDy=0;exitPerimeter=0;entryX=0.99;entryY=0.525;entryDx=0;entryDy=0;entryPerimeter=0;labelBackgroundColor=none;fontColor=default;sketch=1;curveFitting=1;jiggle=2;fontStyle=1;labelBorderColor=none;" parent="1" source="BGifTTCd_8eWKmfKLKCY-38" target="BGifTTCd_8eWKmfKLKCY-33" edge="1">
          <mxGeometry width="50" height="50" relative="1" as="geometry">
            <mxPoint x="360" y="440" as="sourcePoint" />
            <mxPoint x="410" y="390" as="targetPoint" />
          </mxGeometry>
        </mxCell>
        <mxCell id="BGifTTCd_8eWKmfKLKCY-40" value="Εμφάνισε" style="ellipse;shape=umlControl;whiteSpace=wrap;html=1;rounded=1;labelBackgroundColor=none;sketch=1;curveFitting=1;jiggle=2;fontStyle=1;labelBorderColor=none;" parent="1" vertex="1">
          <mxGeometry x="540" y="270" width="70" height="80" as="geometry" />
        </mxCell>
        <mxCell id="BGifTTCd_8eWKmfKLKCY-41" value="" style="endArrow=classic;html=1;rounded=1;entryX=0.86;entryY=0.138;entryDx=0;entryDy=0;entryPerimeter=0;labelBackgroundColor=none;fontColor=default;sketch=1;curveFitting=1;jiggle=2;fontStyle=1;labelBorderColor=none;" parent="1" source="BGifTTCd_8eWKmfKLKCY-40" target="BGifTTCd_8eWKmfKLKCY-26" edge="1">
          <mxGeometry width="50" height="50" relative="1" as="geometry">
            <mxPoint x="360" y="440" as="sourcePoint" />
            <mxPoint x="410" y="390" as="targetPoint" />
          </mxGeometry>
        </mxCell>
        <mxCell id="BGifTTCd_8eWKmfKLKCY-42" value="Μέγεθος αρχείων εντός ορίων?" style="ellipse;shape=umlControl;whiteSpace=wrap;html=1;rounded=1;labelBackgroundColor=none;sketch=1;curveFitting=1;jiggle=2;fontStyle=1;labelBorderColor=none;" parent="1" vertex="1">
          <mxGeometry x="395" y="605" width="80" height="90" as="geometry" />
        </mxCell>
        <mxCell id="BGifTTCd_8eWKmfKLKCY-44" value="" style="endArrow=classic;html=1;rounded=1;exitX=0.81;exitY=0.95;exitDx=0;exitDy=0;exitPerimeter=0;entryX=0.088;entryY=0.322;entryDx=0;entryDy=0;entryPerimeter=0;labelBackgroundColor=none;fontColor=default;sketch=1;curveFitting=1;jiggle=2;fontStyle=1;labelBorderColor=none;" parent="1" source="BGifTTCd_8eWKmfKLKCY-33" target="BGifTTCd_8eWKmfKLKCY-42" edge="1">
          <mxGeometry width="50" height="50" relative="1" as="geometry">
            <mxPoint x="360" y="520" as="sourcePoint" />
            <mxPoint x="410" y="470" as="targetPoint" />
          </mxGeometry>
        </mxCell>
        <mxCell id="BGifTTCd_8eWKmfKLKCY-46" value="&lt;font style=&quot;font-size: 12px;&quot;&gt;Αγγελία Εργασίας&lt;/font&gt;" style="ellipse;shape=umlEntity;whiteSpace=wrap;html=1;fontFamily=Helvetica;fontSize=11;rounded=1;labelBackgroundColor=none;sketch=1;curveFitting=1;jiggle=2;fontStyle=1;labelBorderColor=none;" parent="1" vertex="1">
          <mxGeometry x="700" y="720" width="80" height="80" as="geometry" />
        </mxCell>
        <mxCell id="BGifTTCd_8eWKmfKLKCY-47" value="" style="endArrow=classic;html=1;rounded=1;exitX=0.929;exitY=0.838;exitDx=0;exitDy=0;exitPerimeter=0;entryX=0;entryY=0;entryDx=0;entryDy=0;labelBackgroundColor=none;fontColor=default;sketch=1;curveFitting=1;jiggle=2;fontStyle=1;labelBorderColor=none;" parent="1" source="BGifTTCd_8eWKmfKLKCY-49" target="BGifTTCd_8eWKmfKLKCY-46" edge="1">
          <mxGeometry width="50" height="50" relative="1" as="geometry">
            <mxPoint x="625" y="655" as="sourcePoint" />
            <mxPoint x="675" y="605" as="targetPoint" />
          </mxGeometry>
        </mxCell>
        <mxCell id="BGifTTCd_8eWKmfKLKCY-49" value="Δημιούργησε" style="ellipse;shape=umlControl;whiteSpace=wrap;html=1;rounded=1;labelBackgroundColor=none;sketch=1;curveFitting=1;jiggle=2;fontStyle=1;labelBorderColor=none;" parent="1" vertex="1">
          <mxGeometry x="555" y="610" width="85" height="90" as="geometry" />
        </mxCell>
        <mxCell id="BGifTTCd_8eWKmfKLKCY-50" value="" style="endArrow=classic;html=1;rounded=1;exitX=1;exitY=0.556;exitDx=0;exitDy=0;exitPerimeter=0;labelBackgroundColor=none;fontColor=default;sketch=1;curveFitting=1;jiggle=2;fontStyle=1;labelBorderColor=none;" parent="1" source="BGifTTCd_8eWKmfKLKCY-42" target="BGifTTCd_8eWKmfKLKCY-49" edge="1">
          <mxGeometry width="50" height="50" relative="1" as="geometry">
            <mxPoint x="505" y="655" as="sourcePoint" />
            <mxPoint x="555" y="605" as="targetPoint" />
          </mxGeometry>
        </mxCell>
        <mxCell id="BGifTTCd_8eWKmfKLKCY-51" value="Εμφάνισε" style="ellipse;shape=umlControl;whiteSpace=wrap;html=1;rounded=1;labelBackgroundColor=none;sketch=1;curveFitting=1;jiggle=2;fontStyle=1;labelBorderColor=none;" parent="1" vertex="1">
          <mxGeometry x="570" y="800" width="70" height="80" as="geometry" />
        </mxCell>
        <mxCell id="BGifTTCd_8eWKmfKLKCY-52" value="Μήνυμα για Δημοσίευση Αγγελίας" style="shape=umlBoundary;whiteSpace=wrap;html=1;rounded=1;labelBackgroundColor=none;sketch=1;curveFitting=1;jiggle=2;fontStyle=1;labelBorderColor=none;" parent="1" vertex="1">
          <mxGeometry x="200" y="860" width="100" height="80" as="geometry" />
        </mxCell>
        <mxCell id="BGifTTCd_8eWKmfKLKCY-53" value="" style="endArrow=classic;html=1;rounded=1;exitX=0;exitY=1;exitDx=0;exitDy=0;labelBackgroundColor=none;fontColor=default;sketch=1;curveFitting=1;jiggle=2;fontStyle=1;labelBorderColor=none;" parent="1" source="BGifTTCd_8eWKmfKLKCY-46" target="BGifTTCd_8eWKmfKLKCY-51" edge="1">
          <mxGeometry width="50" height="50" relative="1" as="geometry">
            <mxPoint x="360" y="750" as="sourcePoint" />
            <mxPoint x="410" y="700" as="targetPoint" />
          </mxGeometry>
        </mxCell>
        <mxCell id="BGifTTCd_8eWKmfKLKCY-54" value="" style="endArrow=classic;html=1;rounded=1;entryX=1.01;entryY=0.538;entryDx=0;entryDy=0;entryPerimeter=0;labelBackgroundColor=none;fontColor=default;sketch=1;curveFitting=1;jiggle=2;fontStyle=1;labelBorderColor=none;" parent="1" source="BGifTTCd_8eWKmfKLKCY-51" target="BGifTTCd_8eWKmfKLKCY-52" edge="1">
          <mxGeometry width="50" height="50" relative="1" as="geometry">
            <mxPoint x="360" y="750" as="sourcePoint" />
            <mxPoint x="410" y="700" as="targetPoint" />
          </mxGeometry>
        </mxCell>
        <mxCell id="BGifTTCd_8eWKmfKLKCY-55" value="" style="endArrow=classic;html=1;rounded=1;exitX=0.5;exitY=0.5;exitDx=0;exitDy=0;exitPerimeter=0;entryX=-0.02;entryY=0.538;entryDx=0;entryDy=0;entryPerimeter=0;labelBackgroundColor=none;fontColor=default;sketch=1;curveFitting=1;jiggle=2;fontStyle=1;labelBorderColor=none;" parent="1" source="BGifTTCd_8eWKmfKLKCY-4" target="BGifTTCd_8eWKmfKLKCY-52" edge="1">
          <mxGeometry width="50" height="50" relative="1" as="geometry">
            <mxPoint x="360" y="700" as="sourcePoint" />
            <mxPoint x="410" y="650" as="targetPoint" />
          </mxGeometry>
        </mxCell>
        <mxCell id="BGifTTCd_8eWKmfKLKCY-56" value="&lt;font style=&quot;font-size: 12px;&quot;&gt;Δημοσίευση Αγγελίας&lt;/font&gt;" style="edgeLabel;html=1;align=center;verticalAlign=middle;resizable=0;points=[];rounded=1;labelBackgroundColor=default;sketch=1;curveFitting=1;jiggle=2;fontStyle=1;labelBorderColor=none;" parent="BGifTTCd_8eWKmfKLKCY-55" vertex="1" connectable="0">
          <mxGeometry x="0.1566" y="-2" relative="1" as="geometry">
            <mxPoint as="offset" />
          </mxGeometry>
        </mxCell>
        <mxCell id="BGifTTCd_8eWKmfKLKCY-57" value="Δημοσίευση?" style="ellipse;shape=umlControl;whiteSpace=wrap;html=1;rounded=1;labelBackgroundColor=none;sketch=1;curveFitting=1;jiggle=2;fontStyle=1;labelBorderColor=none;" parent="1" vertex="1">
          <mxGeometry x="360" y="960" width="80" height="90" as="geometry" />
        </mxCell>
        <mxCell id="BGifTTCd_8eWKmfKLKCY-58" value="" style="endArrow=classic;html=1;rounded=1;exitX=0.62;exitY=1.05;exitDx=0;exitDy=0;exitPerimeter=0;entryX=0.063;entryY=0.356;entryDx=0;entryDy=0;entryPerimeter=0;labelBackgroundColor=none;fontColor=default;sketch=1;curveFitting=1;jiggle=2;fontStyle=1;labelBorderColor=none;" parent="1" source="BGifTTCd_8eWKmfKLKCY-52" target="BGifTTCd_8eWKmfKLKCY-57" edge="1">
          <mxGeometry width="50" height="50" relative="1" as="geometry">
            <mxPoint x="360" y="840" as="sourcePoint" />
            <mxPoint x="410" y="790" as="targetPoint" />
          </mxGeometry>
        </mxCell>
        <mxCell id="BGifTTCd_8eWKmfKLKCY-59" value="Ανάρτηση Αγγελίας" style="ellipse;shape=umlControl;whiteSpace=wrap;html=1;rounded=1;labelBackgroundColor=none;sketch=1;curveFitting=1;jiggle=2;fontStyle=1;labelBorderColor=none;" parent="1" vertex="1">
          <mxGeometry x="485" y="900" width="80" height="90" as="geometry" />
        </mxCell>
        <mxCell id="BGifTTCd_8eWKmfKLKCY-60" value="" style="endArrow=classic;html=1;rounded=1;labelBackgroundColor=none;fontColor=default;sketch=1;curveFitting=1;jiggle=2;fontStyle=1;labelBorderColor=none;" parent="1" source="BGifTTCd_8eWKmfKLKCY-57" target="BGifTTCd_8eWKmfKLKCY-59" edge="1">
          <mxGeometry width="50" height="50" relative="1" as="geometry">
            <mxPoint x="360" y="820" as="sourcePoint" />
            <mxPoint x="410" y="770" as="targetPoint" />
          </mxGeometry>
        </mxCell>
        <mxCell id="BGifTTCd_8eWKmfKLKCY-62" value="&lt;font style=&quot;font-size: 12px;&quot;&gt;Ναι&lt;/font&gt;" style="edgeLabel;html=1;align=center;verticalAlign=middle;resizable=0;points=[];rounded=1;labelBackgroundColor=default;sketch=1;curveFitting=1;jiggle=2;fontStyle=1;labelBorderColor=none;" parent="BGifTTCd_8eWKmfKLKCY-60" vertex="1" connectable="0">
          <mxGeometry x="-0.4909" relative="1" as="geometry">
            <mxPoint x="11" as="offset" />
          </mxGeometry>
        </mxCell>
        <mxCell id="BGifTTCd_8eWKmfKLKCY-64" value="Εμφάνισε" style="ellipse;shape=umlControl;whiteSpace=wrap;html=1;rounded=1;labelBackgroundColor=none;sketch=1;curveFitting=1;jiggle=2;fontStyle=1;labelBorderColor=none;" parent="1" vertex="1">
          <mxGeometry x="630" y="910" width="70" height="80" as="geometry" />
        </mxCell>
        <mxCell id="BGifTTCd_8eWKmfKLKCY-65" value="" style="endArrow=classic;html=1;rounded=1;exitX=1.025;exitY=0.567;exitDx=0;exitDy=0;exitPerimeter=0;labelBackgroundColor=none;fontColor=default;sketch=1;curveFitting=1;jiggle=2;fontStyle=1;labelBorderColor=none;" parent="1" source="BGifTTCd_8eWKmfKLKCY-59" target="BGifTTCd_8eWKmfKLKCY-64" edge="1">
          <mxGeometry width="50" height="50" relative="1" as="geometry">
            <mxPoint x="360" y="930" as="sourcePoint" />
            <mxPoint x="410" y="880" as="targetPoint" />
          </mxGeometry>
        </mxCell>
        <mxCell id="BGifTTCd_8eWKmfKLKCY-66" value="Οθόνη Αναρτημένων Αγγελιών" style="shape=umlBoundary;whiteSpace=wrap;html=1;rounded=1;labelBackgroundColor=none;sketch=1;curveFitting=1;jiggle=2;fontStyle=1;labelBorderColor=none;" parent="1" vertex="1">
          <mxGeometry x="720" y="1000" width="100" height="80" as="geometry" />
        </mxCell>
        <mxCell id="BGifTTCd_8eWKmfKLKCY-67" value="" style="endArrow=classic;html=1;rounded=1;exitX=0.914;exitY=0.85;exitDx=0;exitDy=0;exitPerimeter=0;entryX=0.3;entryY=0.125;entryDx=0;entryDy=0;entryPerimeter=0;labelBackgroundColor=none;fontColor=default;sketch=1;curveFitting=1;jiggle=2;fontStyle=1;labelBorderColor=none;" parent="1" source="BGifTTCd_8eWKmfKLKCY-64" target="BGifTTCd_8eWKmfKLKCY-66" edge="1">
          <mxGeometry width="50" height="50" relative="1" as="geometry">
            <mxPoint x="360" y="910" as="sourcePoint" />
            <mxPoint x="410" y="860" as="targetPoint" />
          </mxGeometry>
        </mxCell>
        <mxCell id="BGifTTCd_8eWKmfKLKCY-68" value="Εμφάνισε" style="ellipse;shape=umlControl;whiteSpace=wrap;html=1;rounded=1;labelBackgroundColor=none;sketch=1;curveFitting=1;jiggle=2;fontStyle=1;labelBorderColor=none;" parent="1" vertex="1">
          <mxGeometry x="670" y="605" width="70" height="80" as="geometry" />
        </mxCell>
        <mxCell id="BGifTTCd_8eWKmfKLKCY-73" style="edgeStyle=orthogonalEdgeStyle;rounded=1;orthogonalLoop=1;jettySize=auto;html=1;entryX=1;entryY=0.425;entryDx=0;entryDy=0;entryPerimeter=0;strokeWidth=2;labelBackgroundColor=none;fontColor=default;sketch=1;curveFitting=1;jiggle=2;fontStyle=1;labelBorderColor=none;exitX=0.59;exitY=-0.025;exitDx=0;exitDy=0;exitPerimeter=0;strokeColor=#FF0000;" parent="1" source="BGifTTCd_8eWKmfKLKCY-69" target="BGifTTCd_8eWKmfKLKCY-20" edge="1">
          <mxGeometry relative="1" as="geometry">
            <Array as="points">
              <mxPoint x="789" y="264" />
            </Array>
          </mxGeometry>
        </mxCell>
        <mxCell id="BGifTTCd_8eWKmfKLKCY-69" value="Μήνυμα Αποτυχίας, Υπογράμμιση Ελλείψεων" style="shape=umlBoundary;whiteSpace=wrap;html=1;rounded=1;labelBackgroundColor=none;sketch=1;curveFitting=1;jiggle=2;fontStyle=1;labelBorderColor=none;" parent="1" vertex="1">
          <mxGeometry x="730" y="530" width="100" height="80" as="geometry" />
        </mxCell>
        <mxCell id="BGifTTCd_8eWKmfKLKCY-70" value="" style="endArrow=classic;html=1;rounded=1;entryX=0.429;entryY=0.15;entryDx=0;entryDy=0;entryPerimeter=0;labelBackgroundColor=none;fontColor=default;sketch=1;curveFitting=1;jiggle=2;fontStyle=1;labelBorderColor=none;strokeColor=#FF0000;strokeWidth=2;" parent="1" source="BGifTTCd_8eWKmfKLKCY-31" target="BGifTTCd_8eWKmfKLKCY-68" edge="1">
          <mxGeometry width="50" height="50" relative="1" as="geometry">
            <mxPoint x="714" y="454" as="sourcePoint" />
            <mxPoint x="410" y="410" as="targetPoint" />
          </mxGeometry>
        </mxCell>
        <mxCell id="BGifTTCd_8eWKmfKLKCY-72" value="&lt;font style=&quot;font-size: 12px;&quot;&gt;Όχι&lt;/font&gt;" style="edgeLabel;html=1;align=center;verticalAlign=middle;resizable=0;points=[];rounded=1;labelBackgroundColor=default;sketch=1;curveFitting=1;jiggle=2;fontStyle=1;labelBorderColor=none;" parent="BGifTTCd_8eWKmfKLKCY-70" vertex="1" connectable="0">
          <mxGeometry x="-0.32" y="2" relative="1" as="geometry">
            <mxPoint as="offset" />
          </mxGeometry>
        </mxCell>
        <mxCell id="BGifTTCd_8eWKmfKLKCY-71" value="" style="endArrow=classic;html=1;rounded=1;labelBackgroundColor=none;fontColor=default;sketch=1;curveFitting=1;jiggle=2;fontStyle=1;labelBorderColor=none;strokeColor=#FF0000;strokeWidth=2;exitX=1.014;exitY=0.475;exitDx=0;exitDy=0;exitPerimeter=0;entryX=0.49;entryY=1.013;entryDx=0;entryDy=0;entryPerimeter=0;" parent="1" source="BGifTTCd_8eWKmfKLKCY-68" edge="1" target="BGifTTCd_8eWKmfKLKCY-69">
          <mxGeometry width="50" height="50" relative="1" as="geometry">
            <mxPoint x="360" y="460" as="sourcePoint" />
            <mxPoint x="730" y="570" as="targetPoint" />
          </mxGeometry>
        </mxCell>
        <mxCell id="BGifTTCd_8eWKmfKLKCY-75" value="&lt;font style=&quot;font-size: 12px;&quot;&gt;Ναι&lt;/font&gt;" style="edgeLabel;html=1;align=center;verticalAlign=middle;resizable=0;points=[];rounded=1;labelBackgroundColor=default;sketch=1;curveFitting=1;jiggle=2;fontStyle=1;labelBorderColor=none;" parent="1" vertex="1" connectable="0">
          <mxGeometry x="599.995919406479" y="509.998921540545" as="geometry">
            <mxPoint x="-79" y="142" as="offset" />
          </mxGeometry>
        </mxCell>
        <mxCell id="BGifTTCd_8eWKmfKLKCY-76" value="Εμφάνισε" style="ellipse;shape=umlControl;whiteSpace=wrap;html=1;rounded=1;labelBackgroundColor=none;sketch=1;curveFitting=1;jiggle=2;fontStyle=1;labelBorderColor=none;" parent="1" vertex="1">
          <mxGeometry x="495" y="710" width="70" height="80" as="geometry" />
        </mxCell>
        <mxCell id="BGifTTCd_8eWKmfKLKCY-82" style="edgeStyle=orthogonalEdgeStyle;rounded=0;sketch=1;hachureGap=4;jiggle=2;curveFitting=1;orthogonalLoop=1;jettySize=auto;html=1;entryX=0.25;entryY=0.788;entryDx=0;entryDy=0;entryPerimeter=0;fontFamily=Architects Daughter;fontSource=https%3A%2F%2Ffonts.googleapis.com%2Fcss%3Ffamily%3DArchitects%2BDaughter;fontSize=16;exitX=-0.008;exitY=0.5;exitDx=0;exitDy=0;exitPerimeter=0;strokeWidth=2;strokeColor=#FF0000;" parent="1" edge="1">
          <mxGeometry relative="1" as="geometry">
            <mxPoint x="303.03999999999996" y="780" as="sourcePoint" />
            <mxPoint x="334" y="593.04" as="targetPoint" />
            <Array as="points">
              <mxPoint x="249" y="780" />
              <mxPoint x="249" y="620" />
              <mxPoint x="334" y="620" />
            </Array>
          </mxGeometry>
        </mxCell>
        <mxCell id="BGifTTCd_8eWKmfKLKCY-77" value="Μήνυμα Υπέρβασης Ορίου Μεγέθους Αρχείων" style="shape=umlBoundary;whiteSpace=wrap;html=1;rounded=1;labelBackgroundColor=none;sketch=1;curveFitting=1;jiggle=2;fontStyle=1;labelBorderColor=none;" parent="1" vertex="1">
          <mxGeometry x="305" y="730" width="120" height="100" as="geometry" />
        </mxCell>
        <mxCell id="BGifTTCd_8eWKmfKLKCY-78" value="" style="endArrow=classic;html=1;rounded=0;sketch=1;hachureGap=4;jiggle=2;curveFitting=1;fontFamily=Architects Daughter;fontSource=https%3A%2F%2Ffonts.googleapis.com%2Fcss%3Ffamily%3DArchitects%2BDaughter;fontSize=16;exitX=0.863;exitY=0.878;exitDx=0;exitDy=0;exitPerimeter=0;entryX=0.243;entryY=0.15;entryDx=0;entryDy=0;entryPerimeter=0;strokeColor=#FF0000;strokeWidth=2;" parent="1" source="BGifTTCd_8eWKmfKLKCY-42" target="BGifTTCd_8eWKmfKLKCY-76" edge="1">
          <mxGeometry width="50" height="50" relative="1" as="geometry">
            <mxPoint x="280" y="750" as="sourcePoint" />
            <mxPoint x="330" y="700" as="targetPoint" />
          </mxGeometry>
        </mxCell>
        <mxCell id="BGifTTCd_8eWKmfKLKCY-80" value="&lt;font face=&quot;Helvetica&quot; style=&quot;font-size: 12px;&quot;&gt;Όχι&lt;/font&gt;" style="edgeLabel;html=1;align=center;verticalAlign=middle;resizable=0;points=[];fontSize=20;fontFamily=Architects Daughter;fontStyle=1" parent="BGifTTCd_8eWKmfKLKCY-78" vertex="1" connectable="0">
          <mxGeometry x="-0.4547" y="3" relative="1" as="geometry">
            <mxPoint x="6" y="3" as="offset" />
          </mxGeometry>
        </mxCell>
        <mxCell id="BGifTTCd_8eWKmfKLKCY-79" value="" style="endArrow=classic;html=1;rounded=0;sketch=1;hachureGap=4;jiggle=2;curveFitting=1;fontFamily=Architects Daughter;fontSource=https%3A%2F%2Ffonts.googleapis.com%2Fcss%3Ffamily%3DArchitects%2BDaughter;fontSize=16;exitX=0.014;exitY=0.675;exitDx=0;exitDy=0;exitPerimeter=0;strokeWidth=2;strokeColor=#FF0000;" parent="1" source="BGifTTCd_8eWKmfKLKCY-76" target="BGifTTCd_8eWKmfKLKCY-77" edge="1">
          <mxGeometry width="50" height="50" relative="1" as="geometry">
            <mxPoint x="503" y="776" as="sourcePoint" />
            <mxPoint x="330" y="700" as="targetPoint" />
          </mxGeometry>
        </mxCell>
        <mxCell id="BGifTTCd_8eWKmfKLKCY-84" value="" style="endArrow=classic;html=1;rounded=0;sketch=1;hachureGap=4;jiggle=2;curveFitting=1;fontFamily=Architects Daughter;fontSource=https%3A%2F%2Ffonts.googleapis.com%2Fcss%3Ffamily%3DArchitects%2BDaughter;fontSize=16;exitX=0.963;exitY=0.722;exitDx=0;exitDy=0;exitPerimeter=0;fontStyle=1;entryX=-0.01;entryY=0.525;entryDx=0;entryDy=0;entryPerimeter=0;strokeColor=#FF0000;strokeWidth=2;" parent="1" source="BGifTTCd_8eWKmfKLKCY-57" target="BGifTTCd_8eWKmfKLKCY-66" edge="1">
          <mxGeometry width="50" height="50" relative="1" as="geometry">
            <mxPoint x="280" y="950" as="sourcePoint" />
            <mxPoint x="510" y="1050" as="targetPoint" />
          </mxGeometry>
        </mxCell>
        <mxCell id="BGifTTCd_8eWKmfKLKCY-85" value="&lt;font face=&quot;Helvetica&quot; style=&quot;font-size: 12px;&quot;&gt;Όχι&lt;/font&gt;" style="edgeLabel;html=1;align=center;verticalAlign=middle;resizable=0;points=[];fontSize=20;fontFamily=Architects Daughter;fontStyle=1" parent="BGifTTCd_8eWKmfKLKCY-84" vertex="1" connectable="0">
          <mxGeometry x="-0.3798" y="-2" relative="1" as="geometry">
            <mxPoint x="30" y="-2" as="offset" />
          </mxGeometry>
        </mxCell>
        <mxCell id="zKwYNfhKX217E5rTL9SB-1" value="Εφάρμοσε" style="ellipse;shape=umlControl;whiteSpace=wrap;html=1;rounded=1;labelBackgroundColor=none;sketch=1;curveFitting=1;jiggle=2;fontStyle=1;labelBorderColor=none;" vertex="1" parent="1">
          <mxGeometry x="510" y="380" width="60" height="70" as="geometry" />
        </mxCell>
        <mxCell id="zKwYNfhKX217E5rTL9SB-2" value="&lt;font style=&quot;font-size: 12px;&quot;&gt;Ετικέτες/Tags&lt;/font&gt;" style="ellipse;shape=umlEntity;whiteSpace=wrap;html=1;fontFamily=Helvetica;fontSize=11;rounded=1;labelBackgroundColor=none;sketch=1;curveFitting=1;jiggle=2;fontStyle=1;labelBorderColor=none;" vertex="1" parent="1">
          <mxGeometry x="620" y="350" width="80" height="80" as="geometry" />
        </mxCell>
        <mxCell id="zKwYNfhKX217E5rTL9SB-3" value="" style="endArrow=classic;html=1;rounded=0;sketch=1;hachureGap=4;jiggle=2;curveFitting=1;fontFamily=Architects Daughter;fontSource=https%3A%2F%2Ffonts.googleapis.com%2Fcss%3Ffamily%3DArchitects%2BDaughter;fontSize=16;exitX=1;exitY=0.514;exitDx=0;exitDy=0;exitPerimeter=0;entryX=0;entryY=0.5;entryDx=0;entryDy=0;" edge="1" parent="1" source="zKwYNfhKX217E5rTL9SB-1" target="zKwYNfhKX217E5rTL9SB-2">
          <mxGeometry width="50" height="50" relative="1" as="geometry">
            <mxPoint x="400" y="600" as="sourcePoint" />
            <mxPoint x="450" y="550" as="targetPoint" />
          </mxGeometry>
        </mxCell>
        <mxCell id="zKwYNfhKX217E5rTL9SB-4" value="" style="endArrow=classic;html=1;rounded=0;sketch=1;hachureGap=4;jiggle=2;curveFitting=1;fontFamily=Architects Daughter;fontSource=https%3A%2F%2Ffonts.googleapis.com%2Fcss%3Ffamily%3DArchitects%2BDaughter;fontSize=16;exitX=0.5;exitY=1;exitDx=0;exitDy=0;entryX=0.311;entryY=0.17;entryDx=0;entryDy=0;entryPerimeter=0;" edge="1" parent="1" source="zKwYNfhKX217E5rTL9SB-2" target="BGifTTCd_8eWKmfKLKCY-31">
          <mxGeometry width="50" height="50" relative="1" as="geometry">
            <mxPoint x="400" y="600" as="sourcePoint" />
            <mxPoint x="450" y="550" as="targetPoint" />
          </mxGeometry>
        </mxCell>
      </root>
    </mxGraphModel>
  </diagram>
</mxfile>
